<svg width="701" height="47" viewBox="0 0 701 47" fill="none" xmlns="http://www.w3.org/2000/svg">
<path d="M18.064 37.384C14.704 37.384 11.664 36.648 8.944 35.176C6.256 33.672 4.144 31.624 2.608 29.032C1.072 26.408 0.304 23.464 0.304 20.2C0.304 16.936 1.072 14.008 2.608 11.416C4.144 8.792 6.272 6.744 8.992 5.272C11.712 3.768 14.752 3.016 18.112 3.016C20.736 3.016 23.136 3.464 25.312 4.36C27.488 5.224 29.344 6.52 30.88 8.248L27.76 11.272C25.232 8.616 22.08 7.288 18.304 7.288C15.808 7.288 13.552 7.848 11.536 8.968C9.52 10.088 7.936 11.64 6.784 13.624C5.664 15.576 5.104 17.768 5.104 20.2C5.104 22.632 5.664 24.84 6.784 26.824C7.936 28.776 9.52 30.312 11.536 31.432C13.552 32.552 15.808 33.112 18.304 33.112C22.048 33.112 25.2 31.768 27.76 29.08L30.88 32.104C29.344 33.832 27.472 35.144 25.264 36.04C23.088 36.936 20.688 37.384 18.064 37.384ZM50.6395 11.32C53.8715 11.32 56.4315 12.264 58.3195 14.152C60.2395 16.008 61.1995 18.744 61.1995 22.36V37H56.5915V22.888C56.5915 20.424 55.9995 18.568 54.8155 17.32C53.6315 16.072 51.9355 15.448 49.7275 15.448C47.2315 15.448 45.2635 16.184 43.8235 17.656C42.3835 19.096 41.6635 21.176 41.6635 23.896V37H37.0555V1.384H41.6635V15.16C42.6235 13.944 43.8715 13 45.4075 12.328C46.9755 11.656 48.7195 11.32 50.6395 11.32ZM92.86 24.424C92.86 24.776 92.828 25.24 92.764 25.816H72.124C72.412 28.056 73.388 29.864 75.052 31.24C76.748 32.584 78.844 33.256 81.34 33.256C84.38 33.256 86.828 32.232 88.684 30.184L91.228 33.16C90.076 34.504 88.636 35.528 86.908 36.232C85.212 36.936 83.308 37.288 81.196 37.288C78.508 37.288 76.124 36.744 74.044 35.656C71.964 34.536 70.348 32.984 69.196 31C68.076 29.016 67.516 26.776 67.516 24.28C67.516 21.816 68.06 19.592 69.148 17.608C70.268 15.624 71.788 14.088 73.708 13C75.66 11.88 77.852 11.32 80.284 11.32C82.716 11.32 84.876 11.88 86.764 13C88.684 14.088 90.172 15.624 91.228 17.608C92.316 19.592 92.86 21.864 92.86 24.424ZM80.284 15.208C78.076 15.208 76.22 15.88 74.716 17.224C73.244 18.568 72.38 20.328 72.124 22.504H88.444C88.188 20.36 87.308 18.616 85.804 17.272C84.332 15.896 82.492 15.208 80.284 15.208ZM117.888 33.208V37H96.5763V34.024L111.6 15.352H96.8643V11.56H117.504V14.584L102.48 33.208H117.888ZM159.458 11.56L148.322 37H143.618L132.482 11.56H137.282L146.018 31.96L154.946 11.56H159.458ZM173.952 37.288C171.424 37.288 169.152 36.728 167.136 35.608C165.12 34.488 163.536 32.952 162.384 31C161.264 29.016 160.704 26.776 160.704 24.28C160.704 21.784 161.264 19.56 162.384 17.608C163.536 15.624 165.12 14.088 167.136 13C169.152 11.88 171.424 11.32 173.952 11.32C176.48 11.32 178.736 11.88 180.72 13C182.736 14.088 184.304 15.624 185.424 17.608C186.576 19.56 187.152 21.784 187.152 24.28C187.152 26.776 186.576 29.016 185.424 31C184.304 32.952 182.736 34.488 180.72 35.608C178.736 36.728 176.48 37.288 173.952 37.288ZM173.952 33.256C175.584 33.256 177.04 32.888 178.32 32.152C179.632 31.384 180.656 30.328 181.392 28.984C182.128 27.608 182.496 26.04 182.496 24.28C182.496 22.52 182.128 20.968 181.392 19.624C180.656 18.248 179.632 17.192 178.32 16.456C177.04 15.72 175.584 15.352 173.952 15.352C172.32 15.352 170.848 15.72 169.536 16.456C168.256 17.192 167.232 18.248 166.464 19.624C165.728 20.968 165.36 22.52 165.36 24.28C165.36 26.04 165.728 27.608 166.464 28.984C167.232 30.328 168.256 31.384 169.536 32.152C170.848 32.888 172.32 33.256 173.952 33.256ZM217.236 11.56V37H212.868V33.16C211.94 34.472 210.708 35.496 209.172 36.232C207.668 36.936 206.02 37.288 204.228 37.288C200.836 37.288 198.164 36.36 196.212 34.504C194.26 32.616 193.284 29.848 193.284 26.2V11.56H197.892V25.672C197.892 28.136 198.484 30.008 199.668 31.288C200.852 32.536 202.548 33.16 204.756 33.16C207.188 33.16 209.108 32.424 210.516 30.952C211.924 29.48 212.628 27.4 212.628 24.712V11.56H217.236ZM233.305 37.288C231.225 37.288 229.225 37.016 227.305 36.472C225.385 35.896 223.881 35.176 222.793 34.312L224.713 30.664C225.833 31.464 227.193 32.104 228.793 32.584C230.393 33.064 232.009 33.304 233.641 33.304C237.673 33.304 239.689 32.152 239.689 29.848C239.689 29.08 239.417 28.472 238.873 28.024C238.329 27.576 237.641 27.256 236.809 27.064C236.009 26.84 234.857 26.6 233.353 26.344C231.305 26.024 229.625 25.656 228.313 25.24C227.033 24.824 225.929 24.12 225.001 23.128C224.073 22.136 223.609 20.744 223.609 18.952C223.609 16.648 224.569 14.808 226.489 13.432C228.409 12.024 230.985 11.32 234.217 11.32C235.913 11.32 237.609 11.528 239.305 11.944C241.001 12.36 242.393 12.92 243.481 13.624L241.513 17.272C239.433 15.928 236.985 15.256 234.169 15.256C232.217 15.256 230.729 15.576 229.705 16.216C228.681 16.856 228.169 17.704 228.169 18.76C228.169 19.592 228.457 20.248 229.033 20.728C229.609 21.208 230.313 21.56 231.145 21.784C232.009 22.008 233.209 22.264 234.745 22.552C236.793 22.904 238.441 23.288 239.689 23.704C240.969 24.088 242.057 24.76 242.953 25.72C243.849 26.68 244.297 28.024 244.297 29.752C244.297 32.056 243.305 33.896 241.321 35.272C239.369 36.616 236.697 37.288 233.305 37.288ZM251.208 30.712C252.104 30.712 252.84 31.032 253.416 31.672C254.024 32.28 254.328 33.048 254.328 33.976C254.328 34.456 254.264 34.92 254.136 35.368C254.04 35.816 253.832 36.504 253.512 37.432L251.256 44.104H248.232L250.008 36.952C249.4 36.728 248.904 36.36 248.52 35.848C248.168 35.304 247.992 34.68 247.992 33.976C247.992 33.016 248.296 32.232 248.904 31.624C249.512 31.016 250.28 30.712 251.208 30.712ZM287.309 11.32C289.773 11.32 291.981 11.864 293.933 12.952C295.885 14.04 297.405 15.56 298.493 17.512C299.613 19.464 300.173 21.72 300.173 24.28C300.173 26.84 299.613 29.112 298.493 31.096C297.405 33.048 295.885 34.568 293.933 35.656C291.981 36.744 289.773 37.288 287.309 37.288C285.485 37.288 283.805 36.936 282.269 36.232C280.765 35.528 279.485 34.504 278.429 33.16V46.312H273.821V11.56H278.237V15.592C279.261 14.184 280.557 13.128 282.125 12.424C283.693 11.688 285.421 11.32 287.309 11.32ZM286.925 33.256C288.557 33.256 290.013 32.888 291.293 32.152C292.605 31.384 293.629 30.328 294.365 28.984C295.133 27.608 295.517 26.04 295.517 24.28C295.517 22.52 295.133 20.968 294.365 19.624C293.629 18.248 292.605 17.192 291.293 16.456C290.013 15.72 288.557 15.352 286.925 15.352C285.325 15.352 283.869 15.736 282.557 16.504C281.277 17.24 280.253 18.28 279.485 19.624C278.749 20.968 278.381 22.52 278.381 24.28C278.381 26.04 278.749 27.608 279.485 28.984C280.221 30.328 281.245 31.384 282.557 32.152C283.869 32.888 285.325 33.256 286.925 33.256ZM315.57 11.32C319.09 11.32 321.778 12.184 323.634 13.912C325.522 15.64 326.466 18.216 326.466 21.64V37H322.098V33.64C321.33 34.824 320.226 35.736 318.786 36.376C317.378 36.984 315.698 37.288 313.746 37.288C310.898 37.288 308.61 36.6 306.882 35.224C305.186 33.848 304.338 32.04 304.338 29.8C304.338 27.56 305.154 25.768 306.786 24.424C308.418 23.048 311.01 22.36 314.562 22.36H321.858V21.448C321.858 19.464 321.282 17.944 320.13 16.888C318.978 15.832 317.282 15.304 315.042 15.304C313.538 15.304 312.066 15.56 310.626 16.072C309.186 16.552 307.97 17.208 306.978 18.04L305.058 14.584C306.37 13.528 307.938 12.728 309.762 12.184C311.586 11.608 313.522 11.32 315.57 11.32ZM314.514 33.736C316.274 33.736 317.794 33.352 319.074 32.584C320.354 31.784 321.282 30.664 321.858 29.224V25.672H314.754C310.85 25.672 308.898 26.984 308.898 29.608C308.898 30.888 309.394 31.896 310.386 32.632C311.378 33.368 312.754 33.736 314.514 33.736ZM339.409 15.832C340.209 14.36 341.393 13.24 342.961 12.472C344.529 11.704 346.433 11.32 348.673 11.32V15.784C348.417 15.752 348.065 15.736 347.617 15.736C345.121 15.736 343.153 16.488 341.713 17.992C340.305 19.464 339.601 21.576 339.601 24.328V37H334.993V11.56H339.409V15.832ZM369.688 35.512C369.016 36.088 368.184 36.536 367.192 36.856C366.2 37.144 365.176 37.288 364.12 37.288C361.56 37.288 359.576 36.6 358.168 35.224C356.76 33.848 356.056 31.88 356.056 29.32V15.352H351.736V11.56H356.056V5.992H360.664V11.56H367.96V15.352H360.664V29.128C360.664 30.504 361 31.56 361.672 32.296C362.376 33.032 363.368 33.4 364.648 33.4C366.056 33.4 367.256 33 368.248 32.2L369.688 35.512ZM385.311 37.288C382.783 37.288 380.511 36.728 378.495 35.608C376.479 34.488 374.895 32.952 373.743 31C372.623 29.016 372.063 26.776 372.063 24.28C372.063 21.784 372.623 19.56 373.743 17.608C374.895 15.624 376.479 14.088 378.495 13C380.511 11.88 382.783 11.32 385.311 11.32C387.839 11.32 390.095 11.88 392.079 13C394.095 14.088 395.663 15.624 396.783 17.608C397.935 19.56 398.511 21.784 398.511 24.28C398.511 26.776 397.935 29.016 396.783 31C395.663 32.952 394.095 34.488 392.079 35.608C390.095 36.728 387.839 37.288 385.311 37.288ZM385.311 33.256C386.943 33.256 388.399 32.888 389.679 32.152C390.991 31.384 392.015 30.328 392.751 28.984C393.487 27.608 393.855 26.04 393.855 24.28C393.855 22.52 393.487 20.968 392.751 19.624C392.015 18.248 390.991 17.192 389.679 16.456C388.399 15.72 386.943 15.352 385.311 15.352C383.679 15.352 382.207 15.72 380.895 16.456C379.615 17.192 378.591 18.248 377.823 19.624C377.087 20.968 376.719 22.52 376.719 24.28C376.719 26.04 377.087 27.608 377.823 28.984C378.591 30.328 379.615 31.384 380.895 32.152C382.207 32.888 383.679 33.256 385.311 33.256ZM428.596 11.56V37H424.228V33.16C423.3 34.472 422.068 35.496 420.532 36.232C419.028 36.936 417.38 37.288 415.588 37.288C412.196 37.288 409.524 36.36 407.572 34.504C405.62 32.616 404.644 29.848 404.644 26.2V11.56H409.252V25.672C409.252 28.136 409.844 30.008 411.028 31.288C412.212 32.536 413.908 33.16 416.116 33.16C418.548 33.16 420.468 32.424 421.876 30.952C423.284 29.48 423.988 27.4 423.988 24.712V11.56H428.596ZM451.672 35.512C451 36.088 450.168 36.536 449.176 36.856C448.184 37.144 447.16 37.288 446.104 37.288C443.544 37.288 441.56 36.6 440.152 35.224C438.744 33.848 438.04 31.88 438.04 29.32V15.352H433.72V11.56H438.04V5.992H442.648V11.56H449.944V15.352H442.648V29.128C442.648 30.504 442.984 31.56 443.656 32.296C444.36 33.032 445.352 33.4 446.632 33.4C448.04 33.4 449.24 33 450.232 32.2L451.672 35.512ZM493.126 24.424C493.126 24.776 493.094 25.24 493.03 25.816H472.39C472.678 28.056 473.654 29.864 475.318 31.24C477.014 32.584 479.11 33.256 481.606 33.256C484.646 33.256 487.094 32.232 488.95 30.184L491.494 33.16C490.342 34.504 488.902 35.528 487.174 36.232C485.478 36.936 483.574 37.288 481.462 37.288C478.774 37.288 476.39 36.744 474.31 35.656C472.23 34.536 470.614 32.984 469.462 31C468.342 29.016 467.782 26.776 467.782 24.28C467.782 21.816 468.326 19.592 469.414 17.608C470.534 15.624 472.054 14.088 473.974 13C475.926 11.88 478.118 11.32 480.55 11.32C482.982 11.32 485.142 11.88 487.03 13C488.95 14.088 490.438 15.624 491.494 17.608C492.582 19.592 493.126 21.864 493.126 24.424ZM480.55 15.208C478.342 15.208 476.486 15.88 474.982 17.224C473.51 18.568 472.646 20.328 472.39 22.504H488.71C488.454 20.36 487.574 18.616 486.07 17.272C484.598 15.896 482.758 15.208 480.55 15.208ZM513.828 35.512C513.156 36.088 512.324 36.536 511.332 36.856C510.34 37.144 509.316 37.288 508.26 37.288C505.7 37.288 503.716 36.6 502.308 35.224C500.9 33.848 500.196 31.88 500.196 29.32V15.352H495.876V11.56H500.196V5.992H504.804V11.56H512.1V15.352H504.804V29.128C504.804 30.504 505.14 31.56 505.812 32.296C506.516 33.032 507.508 33.4 508.788 33.4C510.196 33.4 511.396 33 512.388 32.2L513.828 35.512ZM541.554 11.32C545.074 11.32 547.762 12.184 549.618 13.912C551.506 15.64 552.45 18.216 552.45 21.64V37H548.082V33.64C547.314 34.824 546.21 35.736 544.77 36.376C543.362 36.984 541.682 37.288 539.73 37.288C536.882 37.288 534.594 36.6 532.866 35.224C531.17 33.848 530.322 32.04 530.322 29.8C530.322 27.56 531.138 25.768 532.77 24.424C534.402 23.048 536.994 22.36 540.546 22.36H547.842V21.448C547.842 19.464 547.266 17.944 546.114 16.888C544.962 15.832 543.266 15.304 541.026 15.304C539.522 15.304 538.05 15.56 536.61 16.072C535.17 16.552 533.954 17.208 532.962 18.04L531.042 14.584C532.354 13.528 533.922 12.728 535.746 12.184C537.57 11.608 539.506 11.32 541.554 11.32ZM540.498 33.736C542.258 33.736 543.778 33.352 545.058 32.584C546.338 31.784 547.266 30.664 547.842 29.224V25.672H540.738C536.834 25.672 534.882 26.984 534.882 29.608C534.882 30.888 535.378 31.896 536.37 32.632C537.362 33.368 538.738 33.736 540.498 33.736ZM560.977 11.56H565.585V37H560.977V11.56ZM563.281 6.664C562.385 6.664 561.633 6.376 561.025 5.8C560.449 5.224 560.161 4.52 560.161 3.688C560.161 2.856 560.449 2.152 561.025 1.576C561.633 0.967999 562.385 0.663999 563.281 0.663999C564.177 0.663999 564.913 0.951999 565.489 1.528C566.097 2.072 566.401 2.76 566.401 3.592C566.401 4.456 566.097 5.192 565.489 5.8C564.913 6.376 564.177 6.664 563.281 6.664ZM574.384 1.384H578.992V37H574.384V1.384ZM587.79 1.384H592.398V37H587.79V1.384ZM624.188 24.424C624.188 24.776 624.156 25.24 624.092 25.816H603.452C603.74 28.056 604.716 29.864 606.38 31.24C608.076 32.584 610.172 33.256 612.668 33.256C615.708 33.256 618.156 32.232 620.012 30.184L622.556 33.16C621.404 34.504 619.964 35.528 618.236 36.232C616.54 36.936 614.636 37.288 612.524 37.288C609.836 37.288 607.452 36.744 605.372 35.656C603.292 34.536 601.676 32.984 600.524 31C599.404 29.016 598.844 26.776 598.844 24.28C598.844 21.816 599.388 19.592 600.476 17.608C601.596 15.624 603.116 14.088 605.036 13C606.988 11.88 609.18 11.32 611.612 11.32C614.044 11.32 616.204 11.88 618.092 13C620.012 14.088 621.5 15.624 622.556 17.608C623.644 19.592 624.188 21.864 624.188 24.424ZM611.612 15.208C609.404 15.208 607.548 15.88 606.044 17.224C604.572 18.568 603.708 20.328 603.452 22.504H619.772C619.516 20.36 618.636 18.616 617.132 17.272C615.66 15.896 613.82 15.208 611.612 15.208ZM654.299 11.56V37H649.931V33.16C649.003 34.472 647.771 35.496 646.235 36.232C644.731 36.936 643.083 37.288 641.291 37.288C637.899 37.288 635.227 36.36 633.275 34.504C631.323 32.616 630.347 29.848 630.347 26.2V11.56H634.955V25.672C634.955 28.136 635.547 30.008 636.731 31.288C637.915 32.536 639.611 33.16 641.819 33.16C644.251 33.16 646.171 32.424 647.579 30.952C648.987 29.48 649.691 27.4 649.691 24.712V11.56H654.299ZM667.487 15.832C668.287 14.36 669.471 13.24 671.039 12.472C672.607 11.704 674.511 11.32 676.751 11.32V15.784C676.495 15.752 676.143 15.736 675.695 15.736C673.199 15.736 671.231 16.488 669.791 17.992C668.383 19.464 667.679 21.576 667.679 24.328V37H663.071V11.56H667.487V15.832ZM689.914 37.288C687.834 37.288 685.834 37.016 683.914 36.472C681.994 35.896 680.49 35.176 679.402 34.312L681.322 30.664C682.442 31.464 683.802 32.104 685.402 32.584C687.002 33.064 688.618 33.304 690.25 33.304C694.282 33.304 696.298 32.152 696.298 29.848C696.298 29.08 696.026 28.472 695.482 28.024C694.938 27.576 694.25 27.256 693.418 27.064C692.618 26.84 691.466 26.6 689.962 26.344C687.914 26.024 686.234 25.656 684.922 25.24C683.642 24.824 682.538 24.12 681.61 23.128C680.682 22.136 680.218 20.744 680.218 18.952C680.218 16.648 681.178 14.808 683.098 13.432C685.018 12.024 687.594 11.32 690.826 11.32C692.522 11.32 694.218 11.528 695.914 11.944C697.61 12.36 699.002 12.92 700.09 13.624L698.122 17.272C696.042 15.928 693.594 15.256 690.778 15.256C688.826 15.256 687.338 15.576 686.314 16.216C685.29 16.856 684.778 17.704 684.778 18.76C684.778 19.592 685.066 20.248 685.642 20.728C686.218 21.208 686.922 21.56 687.754 21.784C688.618 22.008 689.818 22.264 691.354 22.552C693.402 22.904 695.05 23.288 696.298 23.704C697.578 24.088 698.666 24.76 699.562 25.72C700.458 26.68 700.906 28.024 700.906 29.752C700.906 32.056 699.914 33.896 697.93 35.272C695.978 36.616 693.306 37.288 689.914 37.288Z" fill="white"/>
</svg>
